<svg xmlns="http://www.w3.org/2000/svg" xmlns:xlink="http://www.w3.org/1999/xlink" viewBox="0 0 500 500"><defs><style>.cls-1{fill:none;}.cls-2{fill:#fff;}.cls-2,.cls-3,.cls-4,.cls-5,.cls-6{fill-rule:evenodd;}.cls-3{fill:url(#Blue);}.cls-4{fill:url(#Indigo);}.cls-5{fill:url(#Magenta);}.cls-6{fill:url(#Gold);}</style><linearGradient id="Blue" x1="145.42" y1="249.44" x2="265.64" y2="249.44" gradientUnits="userSpaceOnUse"><stop offset="0" stop-color="#48c0ef"/><stop offset="0.5" stop-color="#00a0e2"/><stop offset="1" stop-color="#008bd1"/></linearGradient><linearGradient id="Indigo" x1="191.83" y1="186.5" x2="339.46" y2="186.5" gradientUnits="userSpaceOnUse"><stop offset="0" stop-color="#5e4f9a"/><stop offset="0.5" stop-color="#312782"/><stop offset="1" stop-color="#453969"/></linearGradient><linearGradient id="Magenta" x1="219.28" y1="243.26" x2="336.68" y2="243.26" gradientUnits="userSpaceOnUse"><stop offset="0" stop-color="#d86fa8"/><stop offset="0.5" stop-color="#c8067d"/><stop offset="1" stop-color="#a1197f"/></linearGradient><linearGradient id="Gold" x1="191.83" y1="266.4" x2="293.1" y2="266.4" gradientUnits="userSpaceOnUse"><stop offset="0" stop-color="#ffeaaa"/><stop offset="0.5" stop-color="#fdca00"/><stop offset="1" stop-color="#f7ad00"/></linearGradient></defs><g id="BACKGROUND"><rect class="cls-1" width="500" height="500"/></g><g id="OBJECTS"><path class="cls-2" d="M239.47,94H391V240.47C391,321.05,322.79,387,239.47,387H88V240.47C88,159.9,156.15,94,239.47,94Z"/><path class="cls-3" d="M191.83,220.85V328c0,24.17-20.4,43.9-45.4,43.9h-1v-151c0-51.81,43.42-93.85,97-93.85a100.6,100.6,0,0,1,23.18,2.74c-42.4,10-73.81,47-73.81,91.11Z"/><path class="cls-4" d="M242.46,171.89c45.56,0,83.81,30.42,94.22,71.37a90.93,90.93,0,0,0,2.78-22.41c0-44.11-31.41-81.09-73.82-91.11a96.44,96.44,0,0,0-64.57,51.08,90.94,90.94,0,0,0-9.24,40c0-27.07,22.65-49,50.63-49Z"/><path class="cls-5" d="M336.68,243.26c-7-27.68-26.76-50.51-52.82-62.44a99.52,99.52,0,0,0-41.4-8.93c27.94,0,50.64,21.89,50.64,49,0,44.11-31.46,81.09-73.82,91.11a100.88,100.88,0,0,0,23.18,2.68c45.56,0,83.81-30.37,94.22-71.38Z"/><path class="cls-6" d="M242.46,269.81c-28,0-50.63-21.9-50.63-49v80A98.72,98.72,0,0,0,219.28,312c42.36-10,73.82-47,73.82-91.11,0,27.06-22.7,49-50.64,49Z"/></g></svg>